# xmcd
#
# Track frame offsets: 
#        150
#        12872
#        27428
#        38955
#        56801
#        71493
#        84742
#        104142
#        116624
#        128494
#
# Disc length: 1859 seconds
#
# Revision: 0
# Processed by: cddbd v1.5.2PL0 Copyright (c) Steve Scherf et al.
# Submitted via: ExactAudioCopy v1.0b4
#
DISCID=8807410a
DTITLE=Arbee Stidham - A Time For Blues  (LP)
DYEAR=1972
DGENRE=Blues
TTITLE0=Meet Me Halfway
TTITLE1=Let Me Love You
TTITLE2=Mr.Texas and Pacific (Find My Baby)
TTITLE3=Wee Hours
TTITLE4=Take Your Hand Off My Knee
TTITLE5=I Don't Want You Baby
TTITLE6=Standin' In My Window
TTITLE7=Don't Look For Me Baby
TTITLE8=Come A Little Closer
TTITLE9=Let's Take The Long Way Home
EXTD=
EXTT0=
EXTT1=
EXTT2=
EXTT3=
EXTT4=
EXTT5=
EXTT6=
EXTT7=
EXTT8=
EXTT9=
PLAYORDER=
